<?xml version="1.0" encoding="UTF-8"?>
<svg id="Layer_1" data-name="Layer 1" xmlns="http://www.w3.org/2000/svg" viewBox="0 0 503.39 503.42">
  <defs>
    <style>
      .cls-1 {
        fill: none;
      }

      .cls-1, .cls-2 {
        stroke-width: 0px;
      }

      .cls-3 {
        stroke: #000;
        stroke-miterlimit: 10;
      }

      .cls-2 {
        fill: #00faa8;
      }
    </style>
  </defs>
  <path class="cls-1" d="m38.74,280.5c-1.27-9.43-1.95-19.02-1.96-28.72,0-10.29.73-20.58,2.15-30.6.14-1.02.33-2.02.49-3.03-9.99.86-20.06,1.73-30.17,2.6-.59,4.45-.97,8.27-1.22,11.16-.3,3.57-.51,7.14-.64,10.72-.11,3.03-.19,6.07-.18,9.11,0,1.99.03,3.98.08,5.96,0,.18,0,.36.01.54.18,6.73.64,13.39,1.36,19.98,10.08.76,20.12,1.52,30.08,2.27h0Zm100.08,14.32c-26.23-2.03-52.59-4-79.31-6-4.26-.32-8.55-.64-12.83-.96,3.42,19.49,9.55,38.13,18.03,55.29,16.53,3.85,32.96,7.78,49.32,11.86,4.59-6.08,8.78-13.1,12.33-20.89,5.56-12.18,9.68-25.45,12.46-39.29h0Zm-.09-85.26c-26.54,2.36-53.22,4.65-80.25,6.96-4.03.35-8.09.69-12.15,1.04-.25,1.52-.51,3.04-.73,4.57-1.38,9.7-2.08,19.67-2.08,29.64s.71,19.66,2.07,29.24c4.82.36,9.64.72,14.43,1.08,26.96,2.02,53.58,4.01,80.05,6.06,4.24-25.51,3.83-52.67-1.33-78.6h0Zm276.89,111.71c-2.98-.35-5.96-.7-8.92-1.06-6.16-.74-12.27-1.45-18.38-2.16-6.92,21.42-17.27,41.75-30.99,59.96-12.09,16.05-26.37,29.62-42.11,40.51,1.7.69,3.4,1.34,5.1,2.04l2.29.94c21.1,8.67,44.87,18.49,59.08,37.11,46.27-29.18,82.11-73.43,100.59-125.81-21.49-6.21-44.43-8.94-66.66-11.54h0Zm-306.33,39.51c-13.42-3.32-26.9-6.56-40.43-9.73,5.11,9.27,10.91,18.07,17.36,26.28,8.01-2.81,15.92-8.55,23.08-16.54h-.01Zm48.53,71.16c46.88,18.92,99.42,13.42,142.73-12.03-61.36-24.1-122.12-41.82-183.89-57.31-6.73,8.21-15.37,15.96-25.95,20.24,18.24,21.51,41.04,38.57,67.1,49.1h0,0Z"/>
  <path class="cls-1" d="m351.95,373.97c12.99-17.24,22.84-36.46,29.53-56.7-80.79-9.23-157.76-15.85-235.91-21.93-2.88,14.65-7.21,28.7-13.08,41.57-2.16,4.75-5.97,12.18-11.39,19.85,62.58,15.77,124.19,33.92,186.54,58.73,16.63-10.88,31.71-24.8,44.31-41.52h0Zm65.32-195.73l-6.43.92c-7.88,1.14-15.71,2.25-23.52,3.32,14.2,41.69,15.03,87.18,2.99,129.02,5.72.66,11.44,1.33,17.2,2.02,2.96.36,5.93.7,8.9,1.05,22.6,2.65,45.94,5.43,68.03,11.85,7.58-23.56,11.7-48.67,11.7-74.72,0-30.44-5.61-59.6-15.82-86.5-20.36,6.9-42.04,10.04-63.04,13.04h-.01ZM10.24,213.91c10.17-.88,20.3-1.76,30.35-2.62,3.49-18.35,9.3-35.8,17.1-51.96-11.47,2.73-23,5.43-34.59,8.13-6.86,15.8-10.72,32.99-12.87,46.46h0Zm46.11,127.3c-7.78-16.86-13.41-34.98-16.58-53.87-10.03-.75-20.14-1.51-30.28-2.28,2.04,14.89,5.42,29.35,10.03,43.27.62,1.65,1.27,3.29,1.95,4.91,11.69,2.65,23.31,5.3,34.88,7.97ZM318.38,74.96l-.21.1c-3.65,1.69-7.3,3.34-10.95,4.97,26.36,16.41,49.15,39.85,65.25,68.87,4.86,8.76,9.03,17.83,12.53,27.1,8.25-1.13,16.54-2.3,24.87-3.5l6.44-.92c20.59-2.94,41.83-6.02,61.52-12.65-21.07-51.18-59.03-93.68-106.9-120.55-12.3,17.92-33.62,27.82-52.55,36.59h0Zm57.53,387.2c-13.18-16.83-35.79-26.15-55.86-34.41l-2.29-.95c-3.13-1.29-6.26-2.51-9.39-3.76-27.99,17.55-60.01,26.91-92.19,26.91-20.57,0-41.2-3.82-60.88-11.77-27.95-11.28-52.26-29.79-71.49-53.13-3.18.74-6.36,1.12-9.55,1.12-8.6,0-17.21-2.69-25.75-8.04-3.97-2.49-7.6-5.38-10.95-8.56,41.68,75.41,122.02,126.59,214.11,126.59,45.33,0,87.81-12.42,124.24-34.01h0ZM59.27,119.76c8.53-2.97,16.86-3.51,24.91-1.71,25.21-30.32,58.84-52.14,96.87-60.76,40.61-9.2,82.79-1.8,119.02,18.53,5.11-2.24,10.2-4.54,15.27-6.88l.21-.1c17.91-8.29,38.07-17.64,49.43-33.7-33.89-17.81-72.44-27.9-113.31-27.9-91.8,0-171.93,50.87-213.72,125.89,6.07-5.84,13.11-10.51,21.32-13.37h0Z"/>
  <path class="cls-1" d="m52.1,372.42c9.01,5.66,18.05,7.84,26.95,6.62-7.11-9.36-13.43-19.41-18.89-30.03-11.65-2.71-23.37-5.38-35.13-8.05,6.45,12.76,15.19,24.01,27.07,31.47h0Zm9.39-246.3c-15.66,5.46-26.78,18.37-34.68,33.55,11.69-2.72,23.32-5.46,34.89-8.23,5.2-9.69,11.13-18.85,17.71-27.41-1.47-.18-2.96-.29-4.45-.29-4.4,0-8.9.79-13.46,2.38h-.01Zm322.03,184.6c12.12-41.24,11.28-86.23-3.02-127.31-80.26,10.91-157.04,18.59-235.02,25.56,5.13,26.29,5.53,53.81,1.3,79.71,78.39,6.1,155.62,12.75,236.74,22.04h0Zm-246.18-107.8c-1.44-6.21-3.16-12.33-5.16-18.33-2.29-6.83-8.81-24.28-19.93-38.77-15.24,3.94-30.57,7.74-46,11.45-8.52,16.48-14.88,34.44-18.66,53.42,3.44-.29,6.89-.59,10.32-.88,26.76-2.29,53.17-4.56,79.44-6.89h0Zm45.2-139.06c-35.67,8.08-67.33,28.26-91.4,56.35,1.05.43,2.1.85,3.14,1.36,7.9,3.88,14.68,9.87,20.42,16.65,60.19-15.7,119.06-33.87,177.55-59-33.76-17.66-72.44-23.8-109.72-15.36h0Zm117.16,19.49c-59.54,25.98-119.34,44.63-180.46,60.66,10.77,14.86,17.05,31.63,19.33,38.45,2.17,6.49,4.01,13.13,5.54,19.86,77.68-6.94,154.15-14.57,234.01-25.39-3.27-8.46-7.1-16.74-11.55-24.76-16.33-29.44-39.79-52.93-66.87-68.82Zm-192.25,56.75c-4.7-5.1-10.07-9.51-16.14-12.49-1.55-.76-3.12-1.37-4.71-1.91-5.91,7.46-11.26,15.34-16.01,23.58,12.34-2.99,24.62-6.04,36.85-9.19h.01Z"/>
  <g>
    <path class="cls-3" d="m497.02,251.7c0-135.23-109.97-245.26-245.18-245.34-41.73.03-81.04,10.46-115.44,28.82-.52.27-1.05.55-1.56.83-.05.03-.1.06-.16.09-51.01,27.79-91.12,73.17-112.14,127.94h-.04c-.94,2.44-1.84,4.9-2.7,7.38h.04c-4.96,14.29-8.58,29.01-10.81,43.97-.33,2.22-.63,4.44-.9,6.68-.76,6.26-1.28,12.6-1.55,18.99v.03l-.06,1.5v.04c-.11,3.01-.19,6.03-.19,9.06v.05c0,1.95.03,3.91.08,5.85v.02c0,.26,0,.54.02.8v.04c.05,1.79.12,3.56.21,5.34v.08l.03.7v.09c1.1,21.15,4.89,41.59,11.03,60.98.09.25.19.51.27.76.33,1.05.67,2.1,1.03,3.14h-.03c.82,2.46,1.69,4.9,2.59,7.33h.04c20.76,55.91,61.35,102.26,113.18,130.47l.06.03c.55.3,1.1.59,1.66.88,34.39,18.33,73.65,28.74,115.36,28.77,135.21-.09,245.18-110.11,245.18-245.34h0l-.02.02Zm-118.37,202.11c-13.87-18.2-37.08-27.78-57.7-36.24l-2.24-.92c-1.66-.68-3.32-1.32-4.98-1.99,15.36-10.64,29.32-23.89,41.13-39.57,13.4-17.79,23.51-37.65,30.27-58.56,5.97.69,11.94,1.39,17.95,2.11,2.89.35,5.8.68,8.71,1.04,21.71,2.54,44.12,5.21,65.11,11.27-18.05,51.16-53.05,94.38-98.25,122.88h0v-.02h0Zm-309.59-112.79c-8.28-16.77-14.26-34.97-17.61-54,4.18.31,8.37.63,12.53.94,26.09,1.95,51.84,3.89,77.46,5.86-2.72,13.52-6.74,26.49-12.17,38.37-3.47,7.61-7.56,14.46-12.04,20.4-15.98-3.98-32.03-7.81-48.17-11.58h0Zm43.54,17.22c-6.99,7.8-14.71,13.41-22.54,16.15-6.29-8.02-11.96-16.6-16.96-25.67,13.22,3.1,26.38,6.26,39.49,9.5h0v.02h.01Zm-48.12-76.85c-4.68-.35-9.39-.7-14.09-1.05-1.34-9.46-2.02-19-2.02-28.56s.68-19.48,2.03-28.95c.21-1.49.47-2.98.71-4.46,3.96-.34,7.92-.68,11.87-1.02,26.4-2.26,52.47-4.49,78.38-6.8,5.04,25.33,5.44,51.85,1.3,76.77-25.85-2-51.84-3.95-78.18-5.92h0Zm-51.5-23.82c-.05-1.93-.08-3.88-.08-5.82,0-3.45.08-6.9.23-10.35.14-3.03.31-6.05.57-9.01.23-2.81.62-6.55,1.19-10.9,9.87-.86,19.7-1.71,29.47-2.54-.16.99-.33,1.96-.48,2.96-1.39,9.78-2.09,19.84-2.1,29.88,0,9.48.67,18.85,1.91,28.06-9.74-.73-19.53-1.47-29.38-2.22-.69-6.44-1.15-12.94-1.33-19.51v-.53h0v-.02h0Zm32.53-45.34c-9.83.84-19.71,1.7-29.64,2.56,2.09-13.15,5.86-29.95,12.57-45.38,11.32-2.63,22.58-5.26,33.78-7.94-7.62,15.79-13.29,32.84-16.7,50.75h0Zm25.05-52.75c15.07-3.62,30.04-7.33,44.93-11.18,10.86,14.15,17.24,31.19,19.47,37.87,1.95,5.85,3.63,11.84,5.04,17.9-25.66,2.28-51.45,4.49-77.59,6.73-3.35.28-6.72.58-10.08.86,3.7-18.54,9.9-36.08,18.23-52.17h0Zm77.39,50.49c76.15-6.81,151.15-14.31,229.54-24.96,13.97,40.13,14.79,84.07,2.95,124.34-79.23-9.08-154.66-15.57-231.22-21.53,4.13-25.31,3.74-52.17-1.27-77.85h0Zm-1.34-6.49c-1.49-6.58-3.29-13.07-5.41-19.4-2.23-6.66-8.36-23.03-18.88-37.55,59.7-15.66,118.11-33.87,176.25-59.25,26.45,15.52,49.36,38.45,65.31,67.22,4.35,7.83,8.09,15.92,11.28,24.18-78,10.57-152.69,18.02-228.56,24.8h0Zm-28.71-62.61c-5.61-6.62-12.24-12.47-19.94-16.26-1.02-.5-2.04-.92-3.07-1.33,23.51-27.44,54.43-47.14,89.27-55.04,36.41-8.24,74.19-2.25,107.16,15-57.13,24.54-114.62,42.29-173.41,57.62h-.01Zm-22.84-10.35c5.92,2.91,11.16,7.22,15.76,12.2-11.94,3.07-23.93,6.05-35.99,8.98,4.68-8.12,9.9-15.81,15.64-23.03,1.54.53,3.09,1.12,4.6,1.87h0v-.02h-.01Zm-28.93,23.26c-11.35,2.72-22.71,5.4-34.08,8.04,7.73-14.83,18.58-27.44,33.87-32.77,4.45-1.55,8.84-2.32,13.15-2.32,1.47,0,2.91.11,4.35.28-6.48,8.44-12.26,17.39-17.3,26.77h.01ZM15.15,284.29c9.9.75,19.78,1.49,29.57,2.23,3.1,18.45,8.59,36.15,16.19,52.61-11.3-2.62-22.65-5.21-34.07-7.78-.66-1.58-1.3-3.18-1.9-4.8-4.49-13.6-7.8-27.72-9.8-42.26h0Zm49.49,62.46c5.28,10.3,11.45,20.11,18.45,29.33-8.69,1.19-17.53-.94-26.32-6.47-11.6-7.29-20.14-18.26-26.44-30.74,11.5,2.61,22.93,5.23,34.31,7.86h0v.02h0Zm55.18,13.27c60.32,15.13,119.66,32.44,179.6,55.97-42.3,24.86-93.62,30.23-139.4,11.75-25.46-10.27-47.72-26.94-65.54-47.96,10.33-4.18,18.77-11.75,25.35-19.77h-.01Zm4.33-5.7c5.29-7.49,9.01-14.75,11.12-19.39,5.73-12.57,9.97-26.3,12.78-40.6,76.33,5.94,151.5,12.39,230.41,21.42-6.53,19.77-16.15,38.53-28.84,55.38-12.31,16.33-27.03,29.93-43.28,40.55-60.9-24.22-121.07-41.96-182.19-57.36h0Zm354.87-29.63c-21.58-6.27-44.37-8.99-66.44-11.57-2.91-.34-5.81-.68-8.69-1.03-5.63-.67-11.21-1.33-16.8-1.97,11.76-40.86,10.95-85.29-2.92-126.01,7.63-1.05,15.28-2.13,22.97-3.24l6.28-.9c20.52-2.93,41.69-6,61.57-12.74,9.97,26.28,15.45,54.75,15.45,84.48,0,25.44-4.01,49.97-11.43,72.98h0Zm-6.46-163.6c-19.23,6.48-39.98,9.48-60.09,12.36l-6.29.9c-8.15,1.18-16.23,2.31-24.29,3.42-3.42-9.05-7.49-17.91-12.24-26.47-15.72-28.34-37.98-51.24-63.73-67.26,3.56-1.59,7.13-3.2,10.69-4.85l.21-.1c18.49-8.56,39.31-18.23,51.33-35.74,46.75,26.24,83.82,67.75,104.41,117.74h0ZM251.67,12.94c39.92,0,77.57,9.86,110.67,27.25-11.1,15.69-30.79,24.82-48.28,32.91l-.21.1c-4.97,2.3-9.94,4.53-14.91,6.72-35.39-19.86-76.58-27.08-116.25-18.1-37.14,8.41-69.99,29.73-94.61,59.34-7.86-1.75-16-1.23-24.33,1.67-8.02,2.79-14.89,7.36-20.82,13.06C83.75,62.63,162.01,12.94,251.67,12.94ZM42.57,366.83c3.27,3.11,6.82,5.93,10.69,8.36,8.33,5.24,16.75,7.85,25.15,7.85,3.12,0,6.22-.37,9.33-1.09,18.78,22.8,42.53,40.87,69.82,51.89,19.22,7.76,39.37,11.5,59.46,11.5,31.43,0,62.7-9.14,90.04-26.28,3.06,1.23,6.1,2.41,9.17,3.67l2.24.93c19.61,8.06,41.69,17.16,54.56,33.61-35.58,21.09-77.07,33.22-121.34,33.22-89.93,0-168.41-50-209.12-123.64h0s0-.02,0-.02Z"/>
    <path class="cls-3" d="m251.84,6.36c135.21.09,245.18,110.11,245.18,245.34-.01,135.22-109.97,245.25-245.18,245.34-41.7-.03-80.97-10.44-115.36-28.77-.56-.29-1.11-.58-1.66-.88l-.06-.03c-51.83-28.21-92.41-74.56-113.18-130.47h-.04c-.9-2.43-1.77-4.87-2.59-7.33h.03c-.35-1.05-.69-2.1-1.03-3.14-.09-.25-.19-.51-.27-.76-6.13-19.4-9.92-39.84-11.03-60.98v-.09l-.03-.7v-.08c-.09-1.78-.16-3.56-.21-5.34v-.04c0-.26-.02-.54-.02-.8v-.02c-.05-1.94-.08-3.9-.08-5.85v-.05c0-3.04.08-6.06.19-9.06v-.04l.06-1.5v-.03c.27-6.39.79-12.73,1.55-18.99.27-2.24.57-4.46.9-6.68,2.23-14.96,5.85-29.68,10.81-43.97h-.04c.86-2.48,1.76-4.94,2.7-7.38h.04c21.03-54.76,61.13-100.15,112.14-127.94.06-.03.11-.06.16-.09.52-.28,1.05-.56,1.56-.83,34.41-18.36,73.71-28.79,115.44-28.82M42.94,135.9c5.93-5.69,12.8-10.27,20.82-13.06,5.15-1.79,10.22-2.68,15.2-2.68,3.08,0,6.12.34,9.13,1.01,24.62-29.61,57.47-50.93,94.61-59.34,11.35-2.57,22.82-3.82,34.25-3.81,28.51,0,56.73,7.74,81.99,21.91,4.97-2.19,9.94-4.42,14.91-6.72l.21-.1c17.49-8.1,37.18-17.23,48.28-32.91-33.1-17.39-70.75-27.25-110.67-27.25-89.66,0-167.92,49.68-208.74,122.96m338.96,41.86c8.06-1.1,16.14-2.24,24.29-3.42l6.29-.9c20.11-2.87,40.85-5.88,60.09-12.36h0c-20.59-50-57.65-91.51-104.41-117.75-12.01,17.5-32.84,27.18-51.33,35.74l-.21.1c-3.57,1.65-7.13,3.26-10.69,4.85,25.75,16.03,48,38.92,63.73,67.26,4.75,8.56,8.82,17.41,12.24,26.47m-263.99-36.88h0c58.79-15.33,116.28-33.08,173.41-57.62-23.12-12.1-48.6-18.66-74.32-18.66-10.96,0-21.96,1.19-32.84,3.65-34.84,7.89-65.76,27.6-89.27,55.04,1.03.41,2.05.83,3.07,1.33,7.71,3.79,14.34,9.64,19.94,16.26m28.71,62.61c75.87-6.78,150.56-14.23,228.56-24.8-3.19-8.26-6.93-16.35-11.28-24.18-15.95-28.76-38.86-51.7-65.31-67.22-58.14,25.37-116.56,43.59-176.25,59.25,10.52,14.52,16.65,30.89,18.88,37.55,2.12,6.33,3.92,12.81,5.41,19.4m-114.57-41.66c11.37-2.64,22.73-5.32,34.08-8.04h0c5.03-9.38,10.82-18.33,17.3-26.77-1.44-.18-2.88-.28-4.35-.28-4.31,0-8.69.77-13.15,2.32-15.29,5.33-26.15,17.94-33.87,32.77m42.78-10.13c12.06-2.93,24.06-5.91,35.99-8.98-4.6-4.98-9.85-9.29-15.76-12.2h0c-1.51-.73-3.06-1.33-4.6-1.86-5.73,7.22-10.96,14.91-15.64,23.03m-22.5,59.96c3.36-.28,6.73-.58,10.08-.86,26.14-2.24,51.93-4.45,77.59-6.73-1.41-6.07-3.09-12.05-5.04-17.9-2.23-6.68-8.6-23.71-19.47-37.87-14.88,3.85-29.86,7.56-44.93,11.18h0c-8.32,16.1-14.52,33.64-18.23,52.17m-36.46,3.14c9.93-.86,19.82-1.72,29.64-2.56h0c3.41-17.92,9.08-34.97,16.7-50.76-11.2,2.68-22.46,5.31-33.78,7.94-6.71,15.43-10.48,32.23-12.57,45.38m463.14,109.88h0c7.41-23.01,11.43-47.53,11.43-72.98,0-29.73-5.48-58.2-15.45-84.48-19.89,6.74-41.05,9.81-61.57,12.74l-6.28.9c-7.7,1.11-15.34,2.19-22.97,3.24,13.87,40.72,14.68,85.15,2.92,126.01,5.59.64,11.17,1.3,16.8,1.97,2.88.34,5.78.68,8.69,1.03,22.07,2.59,44.85,5.3,66.44,11.57m-98.56-15.33c11.84-40.27,11.02-84.21-2.95-124.34-78.39,10.66-153.39,18.16-229.54,24.96,5.01,25.68,5.4,52.55,1.27,77.85,76.56,5.96,151.99,12.44,231.22,21.53m-237.79-22.02c4.14-24.92,3.74-51.44-1.3-76.77-25.91,2.31-51.98,4.54-78.38,6.8-3.95.33-7.91.67-11.87,1.02-.24,1.48-.5,2.97-.71,4.46-1.35,9.47-2.03,19.21-2.03,28.95s.68,19.1,2.02,28.56c4.71.35,9.42.7,14.09,1.05h0c26.34,1.98,52.33,3.93,78.18,5.93m-98.96-7.48c-1.24-9.21-1.91-18.58-1.91-28.06,0-10.04.71-20.1,2.1-29.88.15-1,.32-1.97.48-2.96-9.77.83-19.59,1.68-29.47,2.54-.58,4.35-.96,8.09-1.19,10.9-.25,2.97-.43,5.99-.57,9.01-.15,3.45-.23,6.9-.23,10.35,0,1.94.03,3.89.08,5.82h0v.54c.18,6.57.63,13.08,1.33,19.51,9.85.74,19.64,1.48,29.38,2.22m17.22,59.29c-7.61-16.47-13.1-34.16-16.19-52.61-9.8-.73-19.67-1.47-29.57-2.23,1.99,14.54,5.3,28.67,9.8,42.26.61,1.61,1.24,3.21,1.9,4.8,11.42,2.58,22.77,5.17,34.07,7.78m8.15,1.89h0c16.14,3.76,32.19,7.6,48.17,11.57,4.48-5.94,8.58-12.79,12.04-20.4,5.43-11.89,9.45-24.86,12.17-38.37-25.62-1.97-51.37-3.91-77.46-5.86-4.16-.31-8.35-.63-12.53-.94,3.35,19.04,9.33,37.23,17.61,54m237.28,70.65c16.24-10.63,30.97-24.22,43.28-40.55,12.69-16.85,22.31-35.61,28.84-55.38-78.91-9.02-154.08-15.48-230.41-21.42-2.8,14.3-7.04,28.03-12.78,40.6-2.11,4.64-5.83,11.9-11.12,19.39,61.12,15.4,121.3,33.14,182.19,57.36m72.31,42.14c45.19-28.5,80.2-71.72,98.25-122.88-20.99-6.07-43.39-8.73-65.11-11.27-2.91-.35-5.82-.68-8.71-1.04-6.01-.72-11.98-1.42-17.95-2.11-6.76,20.91-16.87,40.78-30.27,58.56-11.81,15.68-25.77,28.93-41.13,39.57,1.66.67,3.32,1.31,4.98,1.99l2.24.92c20.62,8.47,43.83,18.05,57.7,36.25h0m-300.25-77.41c1.56,0,3.13-.11,4.68-.32-7-9.22-13.17-19.03-18.45-29.33h0c-11.38-2.65-22.82-5.26-34.31-7.87,6.3,12.47,14.84,23.45,26.44,30.74,7.22,4.54,14.47,6.79,21.64,6.79m11.66-2c7.83-2.74,15.55-8.35,22.54-16.15h0c-13.11-3.25-26.26-6.42-39.49-9.51,4.99,9.06,10.67,17.65,16.96,25.67m29.77-14.38h0c-6.57,8.02-15.01,15.59-25.34,19.77,17.81,21.02,40.07,37.68,65.54,47.96,18.42,7.43,37.72,11.01,56.98,11.01,28.62,0,57.13-7.9,82.42-22.76-59.94-23.54-119.28-40.84-179.6-55.97h0m131.85,130.46c44.27,0,85.76-12.13,121.34-33.22-12.87-16.45-34.95-25.55-54.56-33.61l-2.24-.93c-3.07-1.26-6.11-2.44-9.17-3.67-27.34,17.14-58.61,26.28-90.04,26.28-20.09,0-40.24-3.73-59.46-11.5-27.3-11.02-51.04-29.1-69.82-51.89-3.11.72-6.21,1.09-9.33,1.09-8.4,0-16.82-2.62-25.15-7.85-3.88-2.43-7.42-5.25-10.69-8.36h0c40.71,73.65,119.19,123.65,209.12,123.65m245.33-238.78h0M251.84.5h0c-41.2.03-82.07,10.23-118.2,29.51l-.37.19c-.42.22-.84.44-1.25.67l-.1.06-.05.03c-51.42,28.01-91.54,73.08-113.33,127.22h-.03l-1.48,3.76c-.96,2.49-1.89,5.04-2.76,7.57l-2.69,7.78h.18c-3.78,12.17-6.64,24.66-8.51,37.25-.31,2.05-.61,4.28-.92,6.83-.78,6.38-1.31,12.92-1.59,19.45v.17l-.05,1.39v.16c-.13,3.57-.19,6.48-.19,9.17,0,1.92.03,3.86.08,5.98,0,.3,0,.59.02.88v.06c.05,1.77.12,3.56.2,5.33v.18l.03.58v.27c1.05,19.95,4.46,39.68,10.16,58.73h-.1l2.54,7.71c.78,2.33,1.64,4.79,2.65,7.51l1.41,3.83h.08c21.57,55.29,62.06,101.26,114.42,129.75l.09.05.04.02c.4.22.8.43,1.2.64l.45.24c36.07,19.23,76.92,29.42,118.08,29.45,138.41-.09,251.02-112.78,251.04-251.2h0c0-138.44-112.62-251.13-251.05-251.22h0ZM61.49,117.43c18.67-26.37,42.7-48.73,70.52-65.46,36.07-21.7,77.45-33.16,119.67-33.16,35.1,0,70.04,8.05,101.51,23.33-10.71,11.37-26.99,18.91-41.58,25.66h-.03l-.03.03-.17.08c-3.92,1.81-8,3.65-12.14,5.49-25.74-13.9-54.13-21.24-82.28-21.24-11.99,0-23.95,1.33-35.55,3.96-18.92,4.28-37.04,11.85-53.84,22.48-15.44,9.77-29.48,21.94-41.76,36.2-2.27-.33-4.56-.49-6.84-.49-5.65,0-11.41,1.01-17.13,3-.11.04-.23.08-.34.12h0,0Zm257.82-33.04c17.56-8.13,37.28-17.26,50.41-33.38,41.82,24.71,75.22,62.18,94.91,106.44-17.36,5.11-36.17,7.8-52.98,10.2l-6.29.9c-6.23.9-12.71,1.82-19.68,2.78-3.18-7.89-6.84-15.57-10.89-22.88-14.02-25.26-33.52-47.02-56.8-63.45.37-.17.74-.34,1.1-.51h.03l.03-.03.17-.08h-.01Zm-214.92,37.07c22.56-24.19,50.44-40.55,81.06-47.48,10.29-2.33,20.9-3.51,31.55-3.51,20.21,0,40.72,4.29,59.97,12.48-45.75,18.88-96.12,35.34-157.06,51.36-4.9-5.32-10.1-9.63-15.51-12.85h-.01Zm27.37,28.65c64.67-17.26,117.82-35.23,166.39-56.24,25.16,15.36,46.07,37.26,60.61,63.48,2.93,5.28,5.65,10.82,8.12,16.54-78.6,10.48-152.77,17.66-215.75,23.31-1.29-5.13-2.76-10.14-4.37-14.97-1.89-5.66-6.78-18.9-15-32.13h0Zm-87.32,2.82c6.75-9.1,14.59-15.25,23.41-18.32,1.23-.43,2.45-.79,3.67-1.08-3.32,4.93-6.43,10-9.3,15.19-5.9,1.41-11.84,2.82-17.77,4.22h0Zm43.05-10.36c1.58-2.31,3.22-4.59,4.9-6.81.03.02.06.03.09.05l.45.22c1.99,1.02,3.96,2.25,5.91,3.7-3.69.93-7.47,1.88-11.35,2.84h0Zm-12.95,21.99c13.65-3.29,26.33-6.45,38.56-9.59,9,12.82,14.32,27.17,16.28,33.06,1.18,3.53,2.26,7.14,3.25,10.82-24.22,2.14-48.17,4.19-70.74,6.12-.71.06-1.43.12-2.14.18,3.41-14.13,8.37-27.74,14.79-40.59h0Zm-41.87,9.9c7.04-1.64,13.4-3.12,19.35-4.53-4.89,11.85-8.71,24.19-11.39,36.85-5.87.5-11.77,1.01-17.68,1.53,1.92-9.97,4.97-22.21,9.72-33.85h0Zm359.19,14.49c5.76-.81,11.08-1.56,16.1-2.29l6.27-.9c17.96-2.56,38.11-5.44,57.17-11.24,8.74,24.79,13.16,50.72,13.16,77.18,0,22.39-3.19,44.5-9.49,65.82-20.68-5.41-42.44-7.96-61.83-10.23-2.91-.34-5.81-.68-8.68-1.02-3.24-.39-6.57-.78-10.06-1.19,9.61-38.04,8.69-78.77-2.64-116.13h0Zm-237.02,26.29c63.74-5.73,138.82-13.04,218.62-23.77,11.46,35.79,12.4,75.01,2.68,111.5-80.17-9.1-155.9-15.46-220.21-20.49,2.94-22.08,2.57-45.08-1.09-67.23h0Zm-98.68,8.58c2.43-.21,4.87-.42,7.29-.62,23.58-2.02,48.54-4.16,73.1-6.33,3.65,21.16,4.03,43.14,1.11,64.2-20.86-1.61-41.51-3.16-63.06-4.77l-9.7-.74c-3.1-.23-6.22-.47-9.34-.7-.9-7.65-1.36-15.39-1.36-23.07,0-9.4.66-18.81,1.95-27.97h0Zm-36.04,3.1c5.81-.5,11.61-1.01,17.38-1.5-1.05,8.67-1.58,17.51-1.59,26.36,0,7.13.38,14.39,1.12,21.69-3.41-.26-6.82-.51-10.24-.77l-7.13-.54c-.42-4.78-.7-9.51-.82-14.12,0-.22,0-.43-.01-.65-.05-2.01-.08-3.86-.08-5.63,0-3.35.08-6.75.23-10.1.15-3.32.33-6.19.55-8.77.12-1.46.31-3.49.59-5.97h0Zm10.34,97.69c-3.65-11.06-6.47-22.43-8.42-33.91,5.92.45,11.82.89,17.7,1.33,2.53,13.33,6.29,26.33,11.23,38.81-6.31-1.45-12.89-2.95-19.86-4.52-.22-.56-.44-1.13-.66-1.71h0Zm42.64,11.34c-6.41-13.47-11.25-27.72-14.43-42.5l4.87.36c22.82,1.71,46.95,3.52,70.74,5.34-2.6,11-6.07,21.27-10.34,30.61-2.65,5.82-5.72,11.25-9.14,16.2-12.92-3.19-26.62-6.49-41.69-10.01h0Zm60.43,14.71c3.39-5.59,5.76-10.45,7.06-13.3,5.13-11.25,9.2-23.61,12.12-36.78,63.63,4.97,138.54,11.24,217.76,20.17-6.32,16.97-14.9,32.7-25.56,46.86-11.05,14.66-24.26,27.27-39.29,37.5-51-20.12-105.96-37.51-172.1-54.44h.01Zm192.1,62.5c12.72-9.94,24.09-21.52,33.9-34.54,12.63-16.76,22.58-35.48,29.63-55.72,4.37.51,8.81,1.03,13.21,1.56,1.53.19,3.06.37,4.61.55,1.37.16,2.73.32,4.1.49,18.38,2.15,38.97,4.56,58.1,9.43-17.35,45.17-48.8,84.31-89.33,111.15-14.35-16.09-35.21-25.09-54.21-32.91h-.01Zm-254.33-43.5c-3.79-.93-7.62-2.61-11.43-5.01-6.55-4.12-12.42-9.82-17.52-17.02,6.31,1.44,12.38,2.84,18.32,4.21,3.23,6.11,6.79,12.07,10.64,17.82h-.01Zm20.65-2.41c-2.33-3.12-4.56-6.33-6.7-9.62,5.24,1.25,10.46,2.51,15.64,3.77-2.95,2.41-5.95,4.38-8.93,5.85h-.01Zm11.99,14.4c6.34-3.68,12.35-8.72,17.97-15.05,62.93,15.89,115.34,32,163.49,50.28-21.53,10.51-44.95,16.02-68.42,16.02-18.96,0-37.39-3.56-54.79-10.58-21.65-8.74-41.66-22.72-58.26-40.66h0Zm147.73,102.97c-42.35,0-83.84-11.54-119.99-33.36-27.78-16.77-51.76-39.15-70.38-65.53,5.66,2.11,11.38,3.17,17.1,3.17,2.33,0,4.69-.18,7.05-.55,19.4,22.7,43.5,40.26,69.91,50.92,19.58,7.91,40.33,11.92,61.65,11.92,31.61,0,62.87-8.84,90.6-25.61.28.11.57.22.85.34,1.82.72,3.69,1.47,5.53,2.22l2.22.92c16.66,6.84,35.26,14.49,47.62,26.7-34.26,18.9-72.88,28.85-112.16,28.85h0Z"/>
  </g>
  <circle class="cls-2" cx="380.69" cy="178.17" r="43.18"/>
</svg>